<svg width="20" height="16" viewBox="0 0 20 16" fill="none" xmlns="http://www.w3.org/2000/svg">
<path d="M19.5303 1.2487C19.5303 1.52497 19.4205 1.78992 19.2252 1.98527C19.0298 2.18062 18.7649 2.29036 18.4886 2.29036H1.82194C1.54567 2.29036 1.28072 2.18062 1.08537 1.98527C0.89002 1.78992 0.780273 1.52497 0.780273 1.2487C0.780273 0.972431 0.89002 0.707479 1.08537 0.512129C1.28072 0.316778 1.54567 0.207031 1.82194 0.207031H18.4886C18.7649 0.207031 19.0298 0.316778 19.2252 0.512129C19.4205 0.707479 19.5303 0.972431 19.5303 1.2487Z" fill="white"/>
<path d="M15.3636 7.4987C15.3636 7.77497 15.2539 8.03992 15.0585 8.23527C14.8632 8.43062 14.5982 8.54036 14.3219 8.54036H1.82194C1.54567 8.54036 1.28072 8.43062 1.08537 8.23527C0.89002 8.03992 0.780273 7.77497 0.780273 7.4987C0.780273 7.22243 0.89002 6.95748 1.08537 6.76213C1.28072 6.56678 1.54567 6.45703 1.82194 6.45703H14.3219C14.5982 6.45703 14.8632 6.56678 15.0585 6.76213C15.2539 6.95748 15.3636 7.22243 15.3636 7.4987Z" fill="white"/>
<path d="M11.1969 13.7487C11.1969 14.025 11.0872 14.2899 10.8918 14.4853C10.6965 14.6806 10.4315 14.7904 10.1553 14.7904H1.82194C1.54567 14.7904 1.28072 14.6806 1.08537 14.4853C0.89002 14.2899 0.780273 14.025 0.780273 13.7487C0.780273 13.4724 0.89002 13.2075 1.08537 13.0121C1.28072 12.8168 1.54567 12.707 1.82194 12.707H10.1553C10.4315 12.707 10.6965 12.8168 10.8918 13.0121C11.0872 13.2075 11.1969 13.4724 11.1969 13.7487Z" fill="white"/>
</svg>
