<svg width="31" height="31" viewBox="0 0 31 31" fill="none" xmlns="http://www.w3.org/2000/svg">
<g clip-path="url(#clip0_354_5001)">
<path d="M24.5625 9.97506C24.5625 10.4928 24.9822 10.9126 25.5 10.9126C26.0179 10.9126 26.4375 10.4928 26.4375 9.97506H24.5625ZM9.93181 27.6914C10.4496 27.6914 10.8693 27.2717 10.8693 26.7539C10.8693 26.2362 10.4496 25.8164 9.93181 25.8164V27.6914ZM26.4375 9.97506V6.83723H24.5625V9.97506H26.4375ZM25.8005 5.29414L21.9856 1.46082L20.6566 2.78347L24.4715 6.61678L25.8005 5.29414ZM20.4351 0.816406H3.62505V2.69141H20.4351V0.816406ZM0.812547 3.62889L0.8125 24.8789H2.6875L2.68755 3.62891L0.812547 3.62889ZM3.625 27.6914H9.93181V25.8164H3.625V27.6914ZM0.8125 24.8789C0.812498 26.4322 2.0717 27.6914 3.625 27.6914V25.8164C3.10723 25.8164 2.6875 25.3967 2.6875 24.8789H0.8125ZM3.62505 0.816406C2.07175 0.816406 0.812551 2.07561 0.812547 3.62889L2.68755 3.62891C2.68755 3.11114 3.10728 2.69141 3.62505 2.69141V0.816406ZM21.9856 1.46082C21.575 1.04832 21.017 0.816406 20.4351 0.816406V2.69141C20.5182 2.69141 20.5979 2.72453 20.6566 2.78347L21.9856 1.46082ZM26.4375 6.83723C26.4375 6.25888 26.2085 5.70407 25.8005 5.29414L24.4715 6.61678C24.5299 6.67534 24.5625 6.75461 24.5625 6.83723H26.4375Z" fill="white"/>
<path d="M6.74902 8.00586H19.968" stroke="white" stroke-width="1.875" stroke-linecap="round"/>
<path d="M6.74902 14.2559H13.2958" stroke="white" stroke-width="1.875" stroke-linecap="round"/>
<path d="M6.74902 20.5039H9.55479" stroke="white" stroke-width="1.875" stroke-linecap="round"/>
<path d="M22.375 29.2559C26.172 29.2559 29.25 26.1778 29.25 22.3809C29.25 18.5839 26.172 15.5059 22.375 15.5059C18.578 15.5059 15.5 18.5839 15.5 22.3809C15.5 26.1778 18.578 29.2559 22.375 29.2559Z" stroke="white" stroke-width="1.875"/>
<path d="M19.874 23.0039L21.2273 24.3572C21.5004 24.6303 21.9534 24.5928 22.1779 24.2785L24.874 20.5039" stroke="white" stroke-width="1.875" stroke-linecap="round" stroke-linejoin="round"/>
</g>
<defs>
<clipPath id="clip0_354_5001">
<rect width="30" height="30" fill="white" transform="translate(0.5 0.505859)"/>
</clipPath>
</defs>
</svg>
