<svg width="145" height="32" viewBox="0 0 145 32" fill="none" xmlns="http://www.w3.org/2000/svg">
<path d="M9.86595 31.7869C7.02829 31.8704 4.20178 31.3745 1.55924 30.3381L0.5 23.7073H1.33625L2.1725 25.2674C4.06799 29.0007 6.46522 30.6166 10.2562 30.6166C14.6046 30.6166 17.1135 28.4436 17.1135 24.9332C17.1135 21.757 15.2737 20.1968 10.0889 18.358C4.23523 16.3521 1.2805 14.0675 1.2805 8.99692C1.2805 3.9263 5.90772 0.192993 11.6499 0.192993C15.2179 0.192993 17.3365 0.694483 19.2876 1.47457L20.4027 8.32827H19.5107L18.7301 6.71236C16.9462 2.97904 14.7162 1.30741 11.3154 1.30741C7.74746 1.30741 5.62897 3.48053 5.62897 6.54519C5.62897 9.60985 7.35722 11.17 12.319 12.8417C18.7859 15.0148 21.5176 17.4666 21.5176 22.4814C21.5176 28.0535 16.2214 31.7869 9.86595 31.7869ZM37.1267 29.1107C35.2869 30.671 33.4472 31.7296 31.1057 31.7296C27.6492 31.7296 25.8095 30.1695 25.8095 26.4362V12.1159H22.6318V11.28L26.0325 9.99843L29.4333 3.25619H30.8269V10.1656H36.625V12.1159H30.7713V26.3804C30.7713 28.4978 31.8305 29.5565 33.503 29.5565C34.6012 29.5788 35.6716 29.2054 36.5134 28.4978L37.1267 29.1107ZM49.2813 31.8981C42.9816 31.8981 38.3544 27.9418 38.3544 20.5309C38.3544 14.2344 42.8701 9.44243 49.2813 9.44243C55.6926 9.44243 60.2082 13.3987 60.2082 20.8096C60.1525 27.0503 55.6368 31.8981 49.2813 31.8981ZM48.668 10.5568C45.6018 10.5568 43.8736 12.8971 43.8736 19.2493C43.8736 26.2145 46.1036 30.7278 49.8388 30.7278C52.9608 30.7278 54.6333 28.3875 54.6333 22.0354C54.6891 15.126 52.459 10.5568 48.668 10.5568ZM86.7994 31.3966C85.796 31.3966 83.2314 31.3408 81.2802 31.3408C79.3289 31.3408 76.8202 31.3966 75.7609 31.3966V30.7279L76.5414 30.6164C78.4927 30.2822 78.8273 29.6692 78.8273 25.713V17.1877C78.8273 13.9001 77.3777 12.2842 74.869 12.2842C73.2132 12.2953 71.6131 12.886 70.3533 13.9558V25.713C70.3533 29.6692 70.632 30.2265 72.639 30.6164L73.3637 30.7279V31.3966C72.3045 31.3966 69.7958 31.3408 67.8446 31.3408C65.8933 31.3408 63.3288 31.3966 62.3253 31.3966V30.7279L63.2173 30.6164C65.057 30.3378 65.3915 29.6692 65.3915 25.3229V15.9618C65.3915 13.6216 65.0013 12.9529 63.3846 12.2285L62.3253 11.7271V11.2255L69.8515 9.55389L70.4648 9.94394V12.9529C72.862 10.9469 75.0363 9.55389 77.8795 9.55389C81.8935 9.55389 84.0677 11.7271 84.0677 16.2404V25.3229C84.0677 29.7249 84.4022 30.2265 86.2977 30.6164L87.0781 30.7279V31.3966H86.7994ZM93.1569 18.6364V18.915C93.2684 25.1557 96.6134 28.889 101.073 28.889C103.526 28.889 105.255 27.9976 107.094 26.1588L107.707 26.6045C105.366 29.8364 102.356 31.898 98.453 31.898C92.7666 31.898 88.4739 27.9418 88.4739 21.2552C88.4739 14.0115 93.9374 9.3867 99.1778 9.3867C104.976 9.3867 107.763 12.6185 107.93 18.5807L93.1569 18.6364ZM102.634 17.4662C102.523 12.9529 100.85 10.6126 98.2858 10.6126C95.3311 10.6126 93.4914 13.12 93.1569 17.4662H102.634ZM139.54 31.3952C138.759 31.3952 134.857 31.2838 133.351 31.2838C131.736 31.2838 126.885 31.3952 126.105 31.3952V30.7824L127.499 30.5595C128.837 30.3366 129.394 30.0022 129.394 29.1664C129.394 28.4978 128.948 27.6062 128 26.1575L123.15 18.7465L118.3 25.433C117.185 26.9933 116.683 28.1634 116.683 28.9992C116.683 29.835 117.185 30.3923 118.523 30.6152L119.972 30.838V31.4509C119.192 31.4509 115.735 31.3395 114.174 31.3395C112.613 31.3395 110.16 31.4509 109.324 31.4509V30.838L110.048 30.7266C112 30.3923 113.84 28.7207 115.289 26.8819L122.369 17.6322L115.401 7.43518C113.784 5.03918 112.669 3.98047 110.94 3.64614L110.048 3.47898V2.86605C110.829 2.86605 114.732 2.97749 116.237 2.97749C117.854 2.97749 122.592 2.86605 123.429 2.86605V3.47898L122.035 3.70187C120.864 3.86903 120.195 4.25908 120.195 5.09489C120.195 5.76355 120.641 6.65508 121.589 8.10383L125.77 14.5117L129.84 8.8282C130.899 7.26802 131.457 6.09787 131.457 5.26205C131.457 4.42624 130.899 3.86903 129.617 3.64614L128.168 3.42326V2.81033C128.948 2.81033 132.405 2.92177 133.965 2.92177C135.526 2.92177 137.979 2.81033 138.815 2.81033V3.42326L138.09 3.53471C136.139 3.86903 134.355 5.3735 132.851 7.37946L126.551 15.5705L134.188 26.7147C135.805 29.1106 136.92 30.1694 138.648 30.5037L139.54 30.6709V31.3952ZM143.942 2.58343C144.211 2.73388 144.427 2.95676 144.578 3.21865C144.89 3.77586 144.89 4.45566 144.578 5.01287C144.427 5.28033 144.204 5.49765 143.937 5.65367C143.38 5.9657 142.699 5.9657 142.142 5.65367C141.874 5.50322 141.651 5.28033 141.501 5.01287C141.188 4.45566 141.188 3.77587 141.501 3.21308C141.651 2.95119 141.874 2.72831 142.136 2.57786C142.694 2.26582 143.38 2.26582 143.937 2.57786L143.942 2.58343ZM143.826 5.46421C144.054 5.33048 144.249 5.14104 144.378 4.907C144.511 4.6674 144.584 4.39437 144.578 4.11576C144.578 3.84273 144.511 3.5697 144.378 3.33009C144.249 3.09607 144.054 2.90662 143.826 2.77288C143.341 2.49985 142.744 2.49985 142.259 2.77288C142.025 2.90662 141.835 3.09607 141.702 3.33009C141.567 3.5697 141.495 3.84273 141.501 4.11576C141.501 4.39437 141.567 4.6674 141.702 4.907C141.835 5.14104 142.025 5.33048 142.259 5.46421C142.744 5.73724 143.341 5.73724 143.826 5.46421ZM143.647 4.52253L144.032 5.16331H143.625L143.234 4.48909C143.201 4.43337 143.162 4.3888 143.106 4.36094C143.05 4.33308 142.989 4.32193 142.928 4.32193H142.665V5.15774H142.303V3.06821H143.179C143.374 3.05706 143.564 3.11279 143.714 3.2298C143.942 3.46383 143.964 3.83159 143.765 4.0879C143.658 4.19935 143.518 4.27178 143.368 4.2885C143.486 4.3275 143.586 4.41109 143.647 4.51696V4.52253ZM143.441 3.95974C143.513 3.89288 143.547 3.80373 143.542 3.709C143.552 3.6087 143.513 3.51397 143.441 3.44711C143.351 3.38582 143.24 3.35795 143.134 3.36353H142.665V4.04332H143.134C143.246 4.05447 143.351 4.02104 143.441 3.95974Z" fill="white"/>
</svg>
