<svg width="106" height="42" viewBox="0 0 106 42" fill="none" xmlns="http://www.w3.org/2000/svg">
<g clip-path="url(#clip0_2557_30255)">
<path d="M95.7575 29.8793C95.7575 28.5454 94.8117 27.5687 93.5087 27.5687C92.2078 27.5687 91.2609 28.5454 91.2609 29.8793C91.2609 31.211 92.2078 32.1861 93.5087 32.1861C94.8117 32.1861 95.7575 31.2093 95.7575 29.8793ZM92.9178 29.9978V31.507H92.4302V28.1791H93.6418C94.3517 28.1791 94.6775 28.4892 94.6775 29.0936C94.6775 29.4659 94.4258 29.7608 94.1017 29.8035V29.8176C94.3831 29.8625 94.4864 30.1136 94.5443 30.573C94.5887 30.8706 94.6477 31.3868 94.7538 31.508H94.1769C94.0427 31.1953 94.0563 30.7526 93.9529 30.382C93.8674 30.1001 93.717 29.9972 93.3939 29.9972H92.9205V29.9989L92.9178 29.9978ZM93.5222 29.5676C93.9957 29.5676 94.1309 29.3154 94.1309 29.093C94.1309 28.8301 93.9957 28.6223 93.5222 28.6223H92.9178V29.5687H93.5222V29.5676ZM90.7246 29.8793C90.7246 28.2359 92.0292 27.125 93.5065 27.125C94.9881 27.125 96.2911 28.2359 96.2911 29.8793C96.2911 31.5194 94.9886 32.6314 93.5065 32.6314C92.0292 32.6314 90.7246 31.5194 90.7246 29.8793Z" fill="#696969"/>
<path d="M81.0816 32.1412L77.8745 28.5444L74.6954 32.1412H68.0061L74.5439 24.7961L68.0061 17.4489H74.9043L78.1439 21.0181L81.2613 17.4489H87.9181L81.4128 24.7653L88.0085 32.1412H81.0816ZM55.1611 32.1412V8.99609H68.0061V14.1551H60.602V17.4489H68.0061V22.413H60.602V26.9692H68.0061V32.1412H55.1611Z" fill="#696969"/>
<path d="M49.7417 9.00586V18.4781H49.6816C48.482 17.0993 46.9825 16.6188 45.2439 16.6188C41.6812 16.6188 38.9973 19.0425 38.0552 22.2443C36.9806 18.7156 34.2095 16.5528 30.1014 16.5528C26.7643 16.5528 24.1301 18.0501 22.7541 20.4905V17.4581H15.8576V14.1654H23.3845V9.00694H9.70996V32.151H15.8576V22.4228H21.9852C21.7964 23.1709 21.7021 23.9397 21.7043 24.7112C21.7043 29.5369 25.392 32.928 30.1003 32.928C34.058 32.928 36.6683 31.0682 38.0476 27.6825H32.7788C32.0667 28.7014 31.5256 29.0022 30.1008 29.0022C28.4493 29.0022 27.024 27.5607 27.024 25.854H37.7522C38.2175 29.6878 41.2045 32.9935 45.304 32.9935C47.0724 32.9935 48.6914 32.1239 49.6811 30.6548H49.7406V32.1542H55.1609V9.00694H49.7417V9.00586ZM27.195 22.4921C27.5375 21.0213 28.6777 20.0603 30.1008 20.0603C31.6679 20.0603 32.7501 20.9916 33.0342 22.4921H27.195ZM46.4522 28.6289C44.455 28.6289 43.2137 26.768 43.2137 24.8243C43.2137 22.7464 44.2937 20.7502 46.4522 20.7502C48.6919 20.7502 49.5842 22.7475 49.5842 24.8243C49.5842 26.7929 48.6394 28.6289 46.4522 28.6289Z" fill="black"/>
</g>
<defs>
<clipPath id="clip0_2557_30255">
<rect width="86.5801" height="24" fill="white" transform="translate(9.70996 9)"/>
</clipPath>
</defs>
</svg>
